<svg xmlns="http://www.w3.org/2000/svg" xmlns:xlink="http://www.w3.org/1999/xlink" width="500" zoomAndPan="magnify" viewBox="0 0 375 374.999991" height="500" preserveAspectRatio="xMidYMid meet" version="1.0"><defs><clipPath id="276f80b188"><path d="M 117 293 L 188 293 L 188 363.46875 L 117 363.46875 Z M 117 293 " clip-rule="nonzero"/></clipPath><clipPath id="7e3207dd84"><path d="M 257 293 L 329 293 L 329 363.46875 L 257 363.46875 Z M 257 293 " clip-rule="nonzero"/></clipPath><clipPath id="82776876ab"><path d="M 0 11.71875 L 329 11.71875 L 329 270 L 0 270 Z M 0 11.71875 " clip-rule="nonzero"/></clipPath></defs><path fill="#ffc107" d="M 372.28125 62.839844 C 370.054688 60.167969 366.75 58.617188 363.28125 58.617188 L 78.75 58.617188 C 75.117188 58.617188 71.671875 60.308594 69.445312 63.191406 C 67.242188 66.097656 66.492188 69.851562 67.429688 73.367188 L 104.929688 213.601562 C 106.3125 218.757812 110.953125 222.300781 116.25 222.300781 C 116.4375 222.300781 116.648438 222.300781 116.835938 222.277344 L 340.429688 211.019531 C 345.84375 210.738281 350.390625 206.777344 351.375 201.429688 L 374.8125 72.453125 C 375.445312 69.007812 374.507812 65.488281 372.28125 62.839844 Z M 372.28125 62.839844 " fill-opacity="1" fill-rule="nonzero"/><path fill="#fafafa" d="M 292.96875 175.867188 C 286.5 175.867188 281.25 170.617188 281.25 164.144531 L 281.25 117.242188 C 281.25 110.773438 286.5 105.519531 292.96875 105.519531 C 299.4375 105.519531 304.6875 110.773438 304.6875 117.242188 L 304.6875 164.144531 C 304.6875 170.617188 299.4375 175.867188 292.96875 175.867188 Z M 292.96875 175.867188 " fill-opacity="1" fill-rule="nonzero"/><path fill="#fafafa" d="M 222.65625 175.867188 C 216.1875 175.867188 210.9375 170.617188 210.9375 164.144531 L 210.9375 117.242188 C 210.9375 110.773438 216.1875 105.519531 222.65625 105.519531 C 229.125 105.519531 234.375 110.773438 234.375 117.242188 L 234.375 164.144531 C 234.375 170.617188 229.125 175.867188 222.65625 175.867188 Z M 222.65625 175.867188 " fill-opacity="1" fill-rule="nonzero"/><path fill="#fafafa" d="M 152.34375 175.867188 C 145.875 175.867188 140.625 170.617188 140.625 164.144531 L 140.625 117.242188 C 140.625 110.773438 145.875 105.519531 152.34375 105.519531 C 158.8125 105.519531 164.0625 110.773438 164.0625 117.242188 L 164.0625 164.144531 C 164.0625 170.617188 158.8125 175.867188 152.34375 175.867188 Z M 152.34375 175.867188 " fill-opacity="1" fill-rule="nonzero"/><g clip-path="url(#276f80b188)"><path fill="#455a64" d="M 187.5 328.292969 C 187.5 329.445312 187.445312 330.59375 187.332031 331.742188 C 187.21875 332.886719 187.050781 334.027344 186.824219 335.15625 C 186.601562 336.285156 186.320312 337.402344 185.984375 338.503906 C 185.652344 339.605469 185.265625 340.691406 184.824219 341.753906 C 184.382812 342.820312 183.890625 343.859375 183.347656 344.875 C 182.804688 345.890625 182.214844 346.878906 181.574219 347.835938 C 180.933594 348.792969 180.25 349.71875 179.519531 350.609375 C 178.789062 351.5 178.015625 352.351562 177.203125 353.167969 C 176.390625 353.980469 175.535156 354.753906 174.648438 355.484375 C 173.757812 356.214844 172.832031 356.902344 171.875 357.539062 C 170.917969 358.179688 169.933594 358.773438 168.917969 359.316406 C 167.902344 359.859375 166.859375 360.351562 165.796875 360.792969 C 164.734375 361.230469 163.652344 361.621094 162.550781 361.953125 C 161.445312 362.289062 160.332031 362.566406 159.203125 362.792969 C 158.074219 363.019531 156.933594 363.1875 155.789062 363.300781 C 154.644531 363.414062 153.496094 363.46875 152.34375 363.46875 C 151.191406 363.46875 150.042969 363.414062 148.898438 363.300781 C 147.75 363.1875 146.613281 363.019531 145.484375 362.792969 C 144.355469 362.566406 143.242188 362.289062 142.136719 361.953125 C 141.035156 361.621094 139.953125 361.230469 138.890625 360.792969 C 137.828125 360.351562 136.785156 359.859375 135.769531 359.316406 C 134.753906 358.773438 133.769531 358.179688 132.8125 357.539062 C 131.855469 356.902344 130.929688 356.214844 130.039062 355.484375 C 129.152344 354.753906 128.296875 353.980469 127.484375 353.167969 C 126.671875 352.351562 125.898438 351.5 125.167969 350.609375 C 124.4375 349.71875 123.753906 348.792969 123.113281 347.835938 C 122.472656 346.878906 121.882812 345.890625 121.339844 344.875 C 120.796875 343.859375 120.304688 342.820312 119.863281 341.753906 C 119.421875 340.691406 119.035156 339.605469 118.703125 338.503906 C 118.367188 337.402344 118.085938 336.285156 117.863281 335.15625 C 117.636719 334.027344 117.46875 332.886719 117.355469 331.742188 C 117.242188 330.59375 117.1875 329.445312 117.1875 328.292969 C 117.1875 327.140625 117.242188 325.992188 117.355469 324.847656 C 117.46875 323.699219 117.636719 322.5625 117.863281 321.429688 C 118.085938 320.300781 118.367188 319.183594 118.703125 318.082031 C 119.035156 316.980469 119.421875 315.898438 119.863281 314.832031 C 120.304688 313.769531 120.796875 312.726562 121.339844 311.710938 C 121.882812 310.695312 122.472656 309.710938 123.113281 308.75 C 123.753906 307.792969 124.4375 306.871094 125.167969 305.980469 C 125.898438 305.089844 126.671875 304.234375 127.484375 303.421875 C 128.296875 302.605469 129.152344 301.832031 130.039062 301.101562 C 130.929688 300.371094 131.855469 299.6875 132.8125 299.046875 C 133.769531 298.40625 134.753906 297.816406 135.769531 297.273438 C 136.785156 296.730469 137.828125 296.238281 138.890625 295.796875 C 139.953125 295.355469 141.035156 294.96875 142.136719 294.632812 C 143.242188 294.300781 144.355469 294.019531 145.484375 293.792969 C 146.613281 293.570312 147.75 293.402344 148.898438 293.289062 C 150.042969 293.175781 151.191406 293.117188 152.34375 293.117188 C 153.496094 293.117188 154.644531 293.175781 155.789062 293.289062 C 156.933594 293.402344 158.074219 293.570312 159.203125 293.792969 C 160.332031 294.019531 161.445312 294.300781 162.550781 294.632812 C 163.652344 294.96875 164.734375 295.355469 165.796875 295.796875 C 166.859375 296.238281 167.902344 296.730469 168.917969 297.273438 C 169.933594 297.816406 170.917969 298.40625 171.875 299.046875 C 172.832031 299.6875 173.757812 300.371094 174.648438 301.101562 C 175.535156 301.832031 176.390625 302.605469 177.203125 303.421875 C 178.015625 304.234375 178.789062 305.089844 179.519531 305.980469 C 180.25 306.871094 180.933594 307.792969 181.574219 308.75 C 182.214844 309.710938 182.804688 310.695312 183.347656 311.710938 C 183.890625 312.726562 184.382812 313.769531 184.824219 314.832031 C 185.265625 315.898438 185.652344 316.980469 185.984375 318.082031 C 186.320312 319.183594 186.601562 320.300781 186.824219 321.429688 C 187.050781 322.5625 187.21875 323.699219 187.332031 324.847656 C 187.445312 325.992188 187.5 327.140625 187.5 328.292969 Z M 187.5 328.292969 " fill-opacity="1" fill-rule="nonzero"/></g><g clip-path="url(#7e3207dd84)"><path fill="#455a64" d="M 328.125 328.292969 C 328.125 329.445312 328.070312 330.59375 327.957031 331.742188 C 327.84375 332.886719 327.675781 334.027344 327.449219 335.15625 C 327.226562 336.285156 326.945312 337.402344 326.609375 338.503906 C 326.277344 339.605469 325.890625 340.691406 325.449219 341.753906 C 325.007812 342.820312 324.515625 343.859375 323.972656 344.875 C 323.429688 345.890625 322.839844 346.878906 322.199219 347.835938 C 321.558594 348.792969 320.875 349.71875 320.144531 350.609375 C 319.414062 351.5 318.640625 352.351562 317.828125 353.167969 C 317.015625 353.980469 316.160156 354.753906 315.273438 355.484375 C 314.382812 356.214844 313.457031 356.902344 312.5 357.539062 C 311.542969 358.179688 310.558594 358.773438 309.542969 359.316406 C 308.527344 359.859375 307.484375 360.351562 306.421875 360.792969 C 305.359375 361.230469 304.277344 361.621094 303.175781 361.953125 C 302.070312 362.289062 300.957031 362.566406 299.828125 362.792969 C 298.699219 363.019531 297.558594 363.1875 296.414062 363.300781 C 295.269531 363.414062 294.121094 363.46875 292.96875 363.46875 C 291.816406 363.46875 290.667969 363.414062 289.523438 363.300781 C 288.375 363.1875 287.238281 363.019531 286.109375 362.792969 C 284.980469 362.566406 283.863281 362.289062 282.761719 361.953125 C 281.660156 361.621094 280.578125 361.230469 279.515625 360.792969 C 278.453125 360.351562 277.410156 359.859375 276.394531 359.316406 C 275.378906 358.773438 274.394531 358.179688 273.4375 357.539062 C 272.480469 356.902344 271.554688 356.214844 270.664062 355.484375 C 269.777344 354.753906 268.921875 353.980469 268.109375 353.167969 C 267.296875 352.351562 266.523438 351.5 265.792969 350.609375 C 265.0625 349.71875 264.378906 348.792969 263.738281 347.835938 C 263.097656 346.878906 262.507812 345.890625 261.964844 344.875 C 261.421875 343.859375 260.929688 342.820312 260.488281 341.753906 C 260.046875 340.691406 259.660156 339.605469 259.328125 338.503906 C 258.992188 337.402344 258.710938 336.285156 258.488281 335.15625 C 258.261719 334.027344 258.09375 332.886719 257.980469 331.742188 C 257.867188 330.59375 257.8125 329.445312 257.8125 328.292969 C 257.8125 327.140625 257.867188 325.992188 257.980469 324.847656 C 258.09375 323.699219 258.261719 322.5625 258.488281 321.429688 C 258.710938 320.300781 258.992188 319.183594 259.328125 318.082031 C 259.660156 316.980469 260.046875 315.898438 260.488281 314.832031 C 260.929688 313.769531 261.421875 312.726562 261.964844 311.710938 C 262.507812 310.695312 263.097656 309.710938 263.738281 308.75 C 264.378906 307.792969 265.0625 306.871094 265.792969 305.980469 C 266.523438 305.089844 267.296875 304.234375 268.109375 303.421875 C 268.921875 302.605469 269.777344 301.832031 270.664062 301.101562 C 271.554688 300.371094 272.480469 299.6875 273.4375 299.046875 C 274.394531 298.40625 275.378906 297.816406 276.394531 297.273438 C 277.410156 296.730469 278.453125 296.238281 279.515625 295.796875 C 280.578125 295.355469 281.660156 294.96875 282.761719 294.632812 C 283.867188 294.300781 284.980469 294.019531 286.109375 293.792969 C 287.238281 293.570312 288.375 293.402344 289.523438 293.289062 C 290.667969 293.175781 291.816406 293.117188 292.96875 293.117188 C 294.121094 293.117188 295.269531 293.175781 296.414062 293.289062 C 297.558594 293.402344 298.699219 293.570312 299.828125 293.792969 C 300.957031 294.019531 302.070312 294.300781 303.175781 294.632812 C 304.277344 294.96875 305.359375 295.355469 306.421875 295.796875 C 307.484375 296.238281 308.527344 296.730469 309.542969 297.273438 C 310.558594 297.816406 311.542969 298.40625 312.5 299.046875 C 313.457031 299.6875 314.382812 300.371094 315.273438 301.101562 C 316.160156 301.832031 317.015625 302.605469 317.828125 303.421875 C 318.640625 304.234375 319.414062 305.089844 320.144531 305.980469 C 320.875 306.871094 321.558594 307.792969 322.199219 308.75 C 322.839844 309.710938 323.429688 310.695312 323.972656 311.710938 C 324.515625 312.726562 325.007812 313.769531 325.449219 314.832031 C 325.890625 315.898438 326.277344 316.980469 326.609375 318.082031 C 326.945312 319.183594 327.226562 320.300781 327.449219 321.429688 C 327.675781 322.5625 327.84375 323.699219 327.957031 324.847656 C 328.070312 325.992188 328.125 327.140625 328.125 328.292969 Z M 328.125 328.292969 " fill-opacity="1" fill-rule="nonzero"/></g><g clip-path="url(#82776876ab)"><path fill="#455a64" d="M 316.40625 269.667969 L 128.90625 269.667969 C 123.585938 269.667969 118.945312 266.105469 117.585938 260.96875 L 57.328125 35.167969 L 11.71875 35.167969 C 5.25 35.167969 0 29.914062 0 23.445312 C 0 16.972656 5.25 11.71875 11.71875 11.71875 L 66.328125 11.71875 C 71.648438 11.71875 76.289062 15.28125 77.648438 20.417969 L 137.90625 246.21875 L 316.40625 246.21875 C 322.875 246.21875 328.125 251.472656 328.125 257.945312 C 328.125 264.414062 322.875 269.667969 316.40625 269.667969 Z M 316.40625 269.667969 " fill-opacity="1" fill-rule="nonzero"/></g></svg>