<svg xmlns="http://www.w3.org/2000/svg" xmlns:xlink="http://www.w3.org/1999/xlink" width="500" zoomAndPan="magnify" viewBox="0 0 375 374.999991" height="500" preserveAspectRatio="xMidYMid meet" version="1.0"><defs><clipPath id="a82dd57740"><path d="M 80 2.046875 L 295 2.046875 L 295 373.296875 L 80 373.296875 Z M 80 2.046875 " clip-rule="nonzero"/></clipPath></defs><g clip-path="url(#a82dd57740)"><path fill="#fc9806" d="M 80.230469 109.417969 C 80.230469 50.089844 128.277344 2.046875 187.601562 2.046875 C 246.929688 2.046875 294.976562 50.089844 294.976562 109.417969 C 294.976562 198.957031 208.894531 325.433594 187.601562 373.660156 C 166.3125 325.433594 80.230469 198.957031 80.230469 109.417969 Z M 187.601562 27.890625 C 234.191406 27.890625 271.863281 65.558594 271.863281 111.964844 C 271.863281 158.554688 234.191406 196.226562 187.601562 196.226562 C 141.195312 196.226562 103.527344 158.554688 103.527344 111.964844 C 103.527344 65.558594 141.195312 27.890625 187.601562 27.890625 Z M 187.601562 27.890625 " fill-opacity="1" fill-rule="evenodd"/></g><path fill="#fc9806" d="M 230.371094 198.046875 C 224.726562 201.320312 218.539062 204.050781 212.171875 206.054688 L 215.8125 138.171875 C 207.257812 135.804688 201.070312 127.980469 201.070312 118.699219 L 201.070312 71.203125 C 201.070312 69.019531 202.890625 67.199219 205.257812 67.199219 C 207.621094 67.199219 209.441406 69.019531 209.441406 71.203125 L 209.441406 109.238281 C 209.441406 111.601562 211.261719 113.421875 213.445312 113.421875 C 215.8125 113.421875 217.632812 111.601562 217.632812 109.238281 L 217.632812 71.203125 C 217.632812 69.019531 219.449219 67.199219 221.816406 67.199219 C 224 67.199219 226.003906 69.019531 226.003906 71.203125 L 226.003906 109.238281 C 226.003906 111.601562 227.820312 113.421875 230.007812 113.421875 C 232.371094 113.421875 234.191406 111.601562 234.191406 109.238281 L 234.191406 71.203125 C 234.191406 69.019531 236.011719 67.199219 238.378906 67.199219 C 240.5625 67.199219 242.5625 69.019531 242.5625 71.203125 L 242.5625 118.699219 C 242.5625 128.164062 236.011719 136.171875 227.277344 138.355469 Z M 230.371094 198.046875 " fill-opacity="1" fill-rule="evenodd"/><path fill="#fc9806" d="M 168.3125 207.507812 C 161.578125 205.871094 155.390625 203.503906 149.570312 200.59375 L 152.84375 138.71875 C 141.378906 134.898438 132.824219 119.972656 132.824219 102.320312 C 132.824219 81.757812 144.289062 65.015625 158.667969 65.015625 C 172.863281 65.015625 184.507812 81.757812 184.507812 102.320312 C 184.507812 119.972656 175.957031 134.898438 164.492188 138.71875 Z M 168.3125 207.507812 " fill-opacity="1" fill-rule="evenodd"/></svg>